<?xml version="1.0" standalone="no"?>
<!DOCTYPE svg PUBLIC "-//W3C//DTD SVG 20010904//EN"
 "http://www.w3.org/TR/2001/REC-SVG-20010904/DTD/svg10.dtd">
<svg version="1.0" xmlns="http://www.w3.org/2000/svg"
 width="313.000000pt" height="313.000000pt" viewBox="0 0 313.000000 313.000000"
 preserveAspectRatio="xMidYMid meet">
<metadata>
Created by potrace 1.11, written by Peter Selinger 2001-2013
</metadata>
<g transform="translate(0.000000,313.000000) scale(0.100000,-0.100000)"
fill="#000000" stroke="none">
<path d="M2499 3038 c-13 -5 -28 -7 -36 -4 -7 3 -15 1 -18 -4 -3 -5 -13 -9
-23 -8 -9 0 -28 -3 -42 -7 -14 -3 -36 -8 -50 -11 -14 -3 -41 -9 -60 -14 -19
-5 -48 -12 -65 -14 -35 -7 -54 -11 -115 -25 -25 -5 -61 -13 -80 -16 -19 -3
-64 -13 -100 -21 -36 -8 -81 -17 -100 -20 -19 -3 -38 -8 -41 -10 -5 -3 -58
-14 -184 -40 -37 -8 -79 -17 -135 -30 -14 -3 -38 -7 -55 -10 -16 -3 -47 -10
-68 -15 -21 -6 -50 -12 -65 -14 -15 -2 -54 -11 -87 -19 -33 -8 -73 -17 -90
-20 -16 -2 -39 -7 -50 -10 -11 -2 -54 -12 -95 -21 -81 -17 -65 -5 -241 -176
-38 -36 -70 -65 -72 -63 -2 2 -10 -7 -17 -21 -7 -14 -16 -25 -20 -25 -3 0 -64
-56 -135 -126 -72 -69 -186 -178 -254 -242 -191 -182 -202 -193 -192 -206 5
-6 10 -15 11 -21 3 -11 17 -51 27 -75 3 -8 5 -18 5 -22 -1 -5 3 -8 10 -8 6 0
9 -3 6 -6 -4 -3 5 -31 19 -62 13 -31 28 -66 33 -77 5 -11 20 -46 34 -77 14
-31 26 -60 26 -63 0 -5 90 -222 125 -300 7 -16 25 -59 40 -95 14 -36 32 -78
40 -95 7 -16 32 -75 55 -130 23 -55 47 -106 52 -112 6 -7 7 -13 4 -13 -4 0 -1
-10 6 -22 7 -13 13 -25 13 -28 2 -7 17 -43 85 -200 62 -145 82 -191 85 -200 1
-3 18 -40 38 -83 l36 -78 38 5 c21 3 81 8 133 11 52 3 106 8 120 10 14 2 63 6
110 10 47 3 101 8 120 10 19 2 73 7 120 10 47 4 101 8 120 10 19 2 69 7 110
10 41 4 91 8 110 10 19 2 69 6 110 10 41 3 91 8 110 10 19 2 67 6 105 10 39 3
88 8 111 10 22 2 72 7 110 10 38 3 83 7 99 10 17 2 66 7 110 11 44 3 87 8 95
10 8 1 21 3 28 3 6 1 12 5 12 11 0 9 38 92 152 330 33 69 80 166 103 215 24
50 86 180 139 290 53 109 98 208 100 218 1 11 -8 51 -21 91 -13 39 -26 79 -28
89 -2 10 -22 73 -44 140 -37 115 -87 273 -153 487 -16 52 -35 113 -43 135 -7
22 -34 108 -60 190 -25 83 -50 161 -55 175 -5 14 -27 86 -50 160 -91 296 -80
271 -116 268 -18 -1 -43 -6 -55 -10z"/>
</g>
</svg>
